HIERARCHY
ROOT Pelvis
{
	OFFSET 0.000000 0.000000 0.000000
	CHANNELS 6 Xposition Yposition Zposition Xrotation Yrotation Zrotation
	JOINT LeftUpLeg_virtual
	{
		OFFSET 0.000000 0.000000 0.000000
		CHANNELS 3 Xrotation Yrotation Zrotation
		JOINT LeftUpLeg
		{
			OFFSET 8.479700 -4.795502 -0.379100
			CHANNELS 3 Xrotation Yrotation Zrotation
			JOINT LeftLeg
			{
				OFFSET 0.024144 -32.555107 0.112900
				CHANNELS 3 Xrotation Yrotation Zrotation
				JOINT LeftFoot
				{
					OFFSET -0.024144 -32.638630 -3.012600
					CHANNELS 3 Xrotation Yrotation Zrotation
					JOINT LeftToeBase
					{
						OFFSET 0.970200 -13.225400 11.864200
						CHANNELS 3 Xrotation Yrotation Zrotation
						End Site
						{
							OFFSET 0 0 0
						}
					}
				}
			}
		}
	}
	JOINT RightUpLeg_virtual
	{
		OFFSET 0.000000 0.000000 0.000000
		CHANNELS 3 Xrotation Yrotation Zrotation
		JOINT RightUpLeg
		{
			OFFSET -8.479700 -4.795502 -0.379100
			CHANNELS 3 Xrotation Yrotation Zrotation
			JOINT RightLeg
			{
				OFFSET -0.023144 -32.555092 0.112900
				CHANNELS 3 Xrotation Yrotation Zrotation
				JOINT RightFoot
				{
					OFFSET 0.023144 -32.638641 -3.012700
					CHANNELS 3 Xrotation Yrotation Zrotation
					JOINT RightToeBase
					{
						OFFSET -0.970200 -13.225400 11.864200
						CHANNELS 3 Xrotation Yrotation Zrotation
						End Site
						{
							OFFSET 0 0 0
						}
					}
				}
			}
		}
	}
	JOINT Hips_virtual
	{
		OFFSET 0.000000 0.000000 0.000000
		CHANNELS 3 Xrotation Yrotation Zrotation
		JOINT Hips
		{
			OFFSET -0.000000 -0.000000 -0.000000
			CHANNELS 3 Xrotation Yrotation Zrotation
			JOINT Spine
			{
				OFFSET 0.000000 7.722000 1.166200
				CHANNELS 3 Xrotation Yrotation Zrotation
				JOINT Spine1
				{
					OFFSET 0.000000 12.024101 0.248800
					CHANNELS 3 Xrotation Yrotation Zrotation
					JOINT Spine2
					{
						OFFSET 0.000000 11.502998 -0.491200
						CHANNELS 3 Xrotation Yrotation Zrotation
						JOINT Neck_virtual
						{
							OFFSET 0.000000 0.000000 0.000000
							CHANNELS 3 Xrotation Yrotation Zrotation
							JOINT Neck
							{
								OFFSET 0.000000 18.430702 -3.123100
								CHANNELS 3 Xrotation Yrotation Zrotation
								JOINT Head
								{
									OFFSET 0.000000 9.051102 1.034000
									CHANNELS 3 Xrotation Yrotation Zrotation
									End Site
									{
										OFFSET 0 0 0
									}
								}
							}
						}
						JOINT LeftShoulder_virtual
						{
							OFFSET 0.000000 0.000000 0.000000
							CHANNELS 3 Xrotation Yrotation Zrotation
							JOINT LeftShoulder
							{
								OFFSET 6.197800 13.665199 -4.064700
								CHANNELS 3 Xrotation Yrotation Zrotation
								JOINT LeftArm
								{
									OFFSET 7.778100 -0.187103 -1.709300
									CHANNELS 3 Xrotation Yrotation Zrotation
									JOINT LeftForeArm
									{
										OFFSET 22.049376 0.000000 0.000000
										CHANNELS 3 Xrotation Yrotation Zrotation
										JOINT LeftHand
										{
											OFFSET 23.009392 0.000000 0.000000
											CHANNELS 3 Xrotation Yrotation Zrotation
											End Site
											{
												OFFSET 0 0 0
											}
										}
									}
								}
							}
						}
						JOINT RightShoulder_virtual
						{
							OFFSET 0.000000 0.000000 0.000000
							CHANNELS 3 Xrotation Yrotation Zrotation
							JOINT RightShoulder
							{
								OFFSET -6.197800 13.665199 -4.064700
								CHANNELS 3 Xrotation Yrotation Zrotation
								JOINT RightArm
								{
									OFFSET -7.778100 -0.187103 -1.709300
									CHANNELS 3 Xrotation Yrotation Zrotation
									JOINT RightForeArm
									{
										OFFSET -22.049376 0.000000 0.000000
										CHANNELS 3 Xrotation Yrotation Zrotation
										JOINT RightHand
										{
											OFFSET -23.009392 0.000000 0.000000
											CHANNELS 3 Xrotation Yrotation Zrotation
											End Site
											{
												OFFSET 0 0 0
											}
										}
									}
								}
							}
						}
					}
				}
			}
		}
	}
}
MOTION
Frames: 9
Frame Time: 0.03333333
-0.093158 72.468597 -0.632439 0.000000 0.000000 0.000000 -14.105826 4.551974 -0.320189 -19.279645 -2.205793 14.170146 58.150250 -0.402710 0.374198 -24.411269 -1.509364 -11.774686 0.000000 0.000000 0.000000 -14.105826 4.551974 -0.320189 -15.740697 -9.794491 -15.694236 57.735125 0.101132 -0.385129 -26.972373 -3.746731 10.498048 0.000000 0.000000 0.000000 -14.105826 4.551974 -0.320189 -0.000001 0.000001 0.000000 20.019332 -0.034546 0.809809 6.967088 -0.338070 0.675294 0.000000 0.000000 0.000000 6.967315 -0.337866 0.674353 -12.249458 -1.248218 -0.495995 0.000000 0.000000 0.000000 6.967315 -0.337866 0.674353 3.082217 -9.945118 -6.811323 -13.959269 -7.908213 -60.295271 69.634311 -63.509107 71.597110 0.000000 0.000000 0.000000 6.967315 -0.337866 0.674353 8.709540 -2.418522 18.823141 -21.494482 12.934337 56.855488 76.344125 65.516991 -70.724567 0.000000 0.000000 0.000000 
-0.087797 72.465866 -0.634417 0.000000 0.000000 0.000000 -14.083022 4.564857 -0.331256 -19.323377 -2.195266 14.184714 58.169060 -0.451472 0.373875 -24.414791 -1.496308 -11.746486 0.000000 0.000000 0.000000 -14.083022 4.564857 -0.331256 -15.764888 -9.802641 -15.690404 57.737071 0.102567 -0.385112 -26.969874 -3.752482 10.501490 0.000000 0.000000 0.000000 -14.083022 4.564857 -0.331256 0.000000 0.000000 0.000000 20.019317 -0.034371 0.810827 6.967164 -0.337050 0.675000 0.000000 0.000000 0.000000 6.967384 -0.336797 0.673819 -12.274432 -1.249902 -0.501452 0.000000 0.000000 0.000000 6.967384 -0.336797 0.673819 3.081948 -9.940218 -6.846194 -13.919035 -8.007097 -60.186568 69.508404 -63.495201 71.476181 0.000000 0.000000 0.000000 6.967384 -0.336797 0.673819 8.719992 -2.431948 18.863524 -21.419393 13.027297 56.754146 76.284122 65.521547 -70.684385 0.000000 0.000000 0.000000 
-0.074956 72.461777 -0.637413 0.000000 0.000000 0.000000 -14.047962 4.597782 -0.349122 -19.397169 -2.179934 14.205441 58.202494 -0.539162 0.373189 -24.420906 -1.476787 -11.692156 0.000000 0.000000 0.000000 -14.047962 4.597782 -0.349122 -15.797083 -9.822698 -15.688200 57.734694 0.103120 -0.385033 -26.964001 -3.764595 10.512406 0.000000 0.000000 0.000000 -14.047962 4.597782 -0.349122 0.000000 0.000000 0.000000 20.019344 -0.034096 0.812623 6.967762 -0.333988 0.674076 0.000000 0.000000 0.000000 6.967984 -0.333704 0.672075 -12.339812 -1.259015 -0.511593 0.000000 0.000000 0.000000 6.967984 -0.333704 0.672075 3.081505 -9.932722 -6.899785 -13.772136 -8.303073 -59.856588 69.210566 -63.491205 71.193685 0.000000 0.000000 0.000000 6.967984 -0.333704 0.672075 8.739790 -2.465330 18.929306 -21.199616 13.256776 56.475583 76.163883 65.580348 -70.597327 0.000000 0.000000 0.000000 
-0.058217 72.461243 -0.633888 0.000000 0.000000 0.000000 -14.041650 4.642801 -0.352984 -19.424302 -2.185205 14.198282 58.222383 -0.582597 0.372696 -24.428768 -1.475536 -11.654663 0.000000 0.000000 0.000000 -14.041650 4.642801 -0.352984 -15.785081 -9.850710 -15.702904 57.718131 0.099431 -0.384914 -26.960333 -3.774637 10.532334 0.000000 0.000000 0.000000 -14.041650 4.642801 -0.352984 0.000000 0.000000 0.000000 20.019713 -0.034226 0.812702 6.970447 -0.329655 0.671555 0.000000 0.000000 0.000000 6.970661 -0.329434 0.668393 -12.447030 -1.280075 -0.519118 0.000000 0.000000 0.000000 6.970661 -0.329434 0.668393 3.083197 -9.935515 -6.902657 -13.503002 -8.789854 -59.312372 68.869870 -63.545949 70.887275 0.000000 0.000000 0.000000 6.970661 -0.329434 0.668393 8.753002 -2.509402 18.951115 -20.864467 13.561960 56.069313 76.084346 65.725708 -70.530378 0.000000 0.000000 0.000000 
-0.035992 72.463371 -0.609550 0.000000 0.000000 0.000000 -14.042763 4.700203 -0.344425 -19.411720 -2.225303 14.154613 58.233496 -0.573368 0.372822 -24.453853 -1.480875 -11.639724 0.000000 0.000000 0.000000 -14.042763 4.700203 -0.344425 -15.739712 -9.894606 -15.740255 57.688071 0.099450 -0.384638 -26.971589 -3.782124 10.561551 0.000000 0.000000 0.000000 -14.042763 4.700203 -0.344425 -0.000001 0.000000 0.000000 20.021757 -0.034402 0.808794 6.977816 -0.325596 0.664433 0.000000 0.000000 0.000000 6.978042 -0.325380 0.661028 -12.616685 -1.310841 -0.527832 0.000000 0.000000 0.000000 6.978042 -0.325380 0.661028 3.089953 -9.968823 -6.840616 -13.142229 -9.459943 -58.568640 68.458528 -63.706240 70.544680 0.000000 0.000000 0.000000 6.978042 -0.325380 0.661028 8.761120 -2.565050 18.941638 -20.443547 13.957700 55.550782 76.088772 65.933804 -70.542966 0.000000 0.000000 0.000000 
-0.014796 72.470398 -0.577909 0.000000 0.000000 0.000000 -14.044632 4.776362 -0.331942 -19.384398 -2.285851 14.098658 58.228298 -0.555099 0.373009 -24.475705 -1.486633 -11.630245 0.000000 0.000000 0.000000 -14.044632 4.776362 -0.331942 -15.671662 -9.946275 -15.774023 57.639543 0.101737 -0.383853 -26.983897 -3.808773 10.589806 0.000000 0.000000 0.000000 -14.044632 4.776362 -0.331942 0.000000 0.000000 0.000000 20.022901 -0.031009 0.806238 6.981993 -0.314809 0.657667 0.000000 0.000000 0.000000 6.982243 -0.315204 0.653111 -12.706938 -1.359246 -0.535533 0.000000 0.000000 0.000000 6.982243 -0.315204 0.653111 3.085357 -10.037141 -6.697424 -12.499235 -10.379426 -57.462696 67.538522 -64.103921 69.660444 0.000000 0.000000 0.000000 6.982243 -0.315204 0.653111 8.775601 -2.636160 18.873423 -19.699591 14.413909 54.727430 75.983805 66.535277 -70.472840 0.000000 0.000000 0.000000 
0.001445 72.489548 -0.543373 0.000000 0.000000 0.000000 -14.073085 4.871609 -0.316819 -19.311523 -2.346215 14.047840 58.181054 -0.551799 0.372667 -24.478396 -1.495705 -11.616322 0.000000 0.000000 0.000000 -14.073085 4.871609 -0.316819 -15.544409 -10.008730 -15.791560 57.548701 0.104816 -0.382491 -26.983994 -3.857783 10.611849 0.000000 0.000000 0.000000 -14.073085 4.871609 -0.316819 -0.000001 0.000000 0.000000 20.021402 -0.020120 0.807754 6.979991 -0.290166 0.652440 0.000000 0.000000 0.000000 6.980282 -0.290651 0.647076 -12.655366 -1.453473 -0.540543 0.000000 0.000000 0.000000 6.980282 -0.290651 0.647076 3.065992 -10.097434 -6.449460 -11.567991 -11.730439 -55.979431 65.753152 -64.570436 67.822972 0.000000 0.000000 0.000000 6.980282 -0.290651 0.647076 8.764858 -2.748730 18.669180 -18.578786 14.943814 53.540671 75.831403 67.486818 -70.381725 0.000000 0.000000 0.000000 
0.016101 72.532852 -0.499876 0.000000 0.000000 0.000000 -14.151336 4.989162 -0.303005 -19.142167 -2.412047 13.999920 58.056683 -0.553499 0.371672 -24.453488 -1.506597 -11.599226 0.000000 0.000000 0.000000 -14.151336 4.989162 -0.303005 -15.304944 -10.101227 -15.789208 57.367415 0.107251 -0.380180 -26.954971 -3.918728 10.630634 0.000000 0.000000 0.000000 -14.151336 4.989162 -0.303005 0.000001 0.000000 0.000000 20.012622 -0.005480 0.814055 6.969429 -0.259915 0.652488 0.000000 0.000000 0.000000 6.969812 -0.259735 0.647953 -12.320993 -1.549435 -0.536142 0.000000 0.000000 0.000000 6.969812 -0.259735 0.647953 3.017637 -10.229498 -6.129463 -10.245647 -13.223799 -53.977370 63.314255 -65.422625 65.369343 0.000000 0.000000 0.000000 6.969812 -0.259735 0.647953 8.684296 -2.841504 18.243150 -17.043678 15.499555 51.962563 75.363911 69.048028 -70.009111 0.000000 0.000000 0.000000 
0.031358 72.609756 -0.447910 0.000000 0.000000 0.000000 -14.274645 5.142016 -0.304349 -18.868823 -2.507048 13.956114 57.832106 -0.553910 0.369979 -24.387699 -1.512577 -11.579858 0.000000 0.000000 0.000000 -14.274645 5.142016 -0.304349 -14.934565 -10.240046 -15.748651 57.054640 0.108949 -0.376059 -26.876272 -3.997851 10.644927 0.000000 0.000000 0.000000 -14.274645 5.142016 -0.304349 -0.000001 0.000000 0.000000 19.988528 0.007274 0.829925 6.936910 -0.235937 0.669645 0.000000 0.000000 0.000000 6.937390 -0.235862 0.665620 -11.466844 -1.570873 -0.513835 0.000000 0.000000 0.000000 6.937390 -0.235862 0.665620 2.902704 -10.588567 -5.829103 -8.209355 -14.344534 -51.118147 60.161426 -67.419903 62.302465 0.000000 0.000000 0.000000 6.937390 -0.235862 0.665620 8.526239 -2.817777 17.544557 -14.887943 15.974358 49.852373 73.640012 71.996737 -68.447826 0.000000 0.000000 0.000000 
